<svg xmlns="http://www.w3.org/2000/svg" viewBox="0 0 960 420" role="img" aria-labelledby="title desc">
  <title id="title">Berlin skyline with data bars</title>
  <desc id="desc">A stylized Berlin skyline with colorful data bars in front.</desc>
  <rect width="960" height="420" fill="#f8fafc"/>
  <rect y="308" width="960" height="112" fill="#dbeafe"/>
  <path d="M0 310h960" stroke="#94a3b8" stroke-width="4"/>
  <rect x="95" y="205" width="70" height="105" fill="#334155"/>
  <rect x="190" y="168" width="88" height="142" fill="#475569"/>
  <rect x="320" y="220" width="78" height="90" fill="#334155"/>
  <rect x="435" y="145" width="100" height="165" fill="#475569"/>
  <rect x="585" y="190" width="82" height="120" fill="#334155"/>
  <rect x="720" y="160" width="96" height="150" fill="#475569"/>
  <path d="M454 145l31-52 31 52z" fill="#0f766e"/>
  <circle cx="485" cy="92" r="13" fill="#f59e0b"/>
  <rect x="118" y="250" width="24" height="60" fill="#14b8a6"/>
  <rect x="221" y="220" width="24" height="90" fill="#f59e0b"/>
  <rect x="347" y="263" width="24" height="47" fill="#ef4444"/>
  <rect x="473" y="198" width="24" height="112" fill="#14b8a6"/>
  <rect x="614" y="235" width="24" height="75" fill="#f59e0b"/>
  <rect x="759" y="210" width="24" height="100" fill="#ef4444"/>
  <circle cx="810" cy="74" r="38" fill="#fbbf24"/>
  <path d="M60 330c75 34 155 34 240 0s165-34 240 0 160 34 240 0 120-34 180 0v90H60z" fill="#bfdbfe" opacity=".75"/>
</svg>
